<mxfile host="app.diagrams.net" modified="2024-07-10T11:20:02.903Z" agent="Mozilla/5.0 (Windows NT 10.0; Win64; x64) AppleWebKit/537.36 (KHTML, like Gecko) Chrome/126.0.0.0 Safari/537.36 Edg/126.0.0.0" version="24.4.0" etag="uRPhXrse-V3kgLpbhonL" type="github">
  <diagram name="Side-1" id="yZZhv-ezSHzwuiV1iAJI">
    <mxGraphModel>
      <root>
        <mxCell id="0" />
        <mxCell id="1" parent="0" />
      </root>
    </mxGraphModel>
  </diagram>
</mxfile>
